{"title":"The Adjustment Bureau 2011 V2 TS XViD - IMAGiNE","uid":6265100,"size":1488734010,"categoryP":"video","categoryS":"movies","magnet":"?xt=urn:btih:1b62a1ccc1f97e358516df8548571923768f75c6&amp;dn=The+Adjustment+Bureau+2011+V2+TS+XViD+-+IMAGiNE&amp;tr=udp%3A%2F%2Ftracker.openbittorrent.com%3A80&amp;tr=udp%3A%2F%2Fopen.demonii.com%3A1337&amp;tr=udp%3A%2F%2Ftracker.coppersurfer.tk%3A6969&amp;tr=udp%3A%2F%2Fexodus.desync.com%3A6969","seeders":0,"leechers":0,"uploader":"sceneline","files":104,"time":1300878515,"description":"-\nhttp:// www. Speed. Cd       \nhttp:// www. Speed. Cd       the fast  and The Hottest Private Tracker on the net\n\nPlease Seed back to make the speed Faster!!!\n\nand don't forget to visit      ...... www. Speed. Cd..........\n-[pre]\n      *********** ****    ****      ***      ******** *********** ****    *** **********\n           *+*     +*+*+* *+*+*+   *+* *+*   *+*    *+*    *+*     *+*+*   *+* *+*        \n           +*+     +*+ +*+*+ +*+  +*+   +*+  +*+           +*+     *+*+*+  +*+ +*+        \n           +$+     +$+  +*+  +$+ +$++*++$++* *$*           +$+     +$+ +*+ +$+ +$++*++$  \n           +$+     +$+       +$+ +$+     +$+ +$+   +$+$    +$+     +$+  +$+$+$ +$+        \n           $+$     $+$       $+$ $+$     $+$ $+$    $+$    $+$     $+$   $+$+$ $+$        \n       $$$$$$$$$$$ $$$       $$$ $$$     $$$  $$$$$$$$ $$$$$$$$$$$ $$$    $$$$ $$$$$$$$$$     \n                                                \n\n\n\n                           Another Fine Release Brought to you from - IMAGiNE                   \n                                                 \n\n********************************************************************************************************************                                \n                             The Adjustment Bureau 2011 V2 TS XViD - IMAGiNE\n********************************************************************************************************************\n\nRipper ...........:IMAGiNE                                         IMDB Rating.......:7.4/10                             \nVideo Codec.......:XVID                                            Release Date......:06/03/11\nAudio Codec.......:MP3                                             Theatre Date......:04/03/11\nAudio Bitrate.....:128                                             Runtime...........:1h 34mn\nSubtitles.........:yes                                             Language..........:ENGLISH\nResolution........:688 x 384                                       IMDb URL..........:http://www.imdb.com/title/tt1385826/\n[color=yellow]DETAILS:[/color]\n\nVideo\nID                               : 0\nFormat                           : MPEG-4 Visual\nFormat profile                   : Advanced Simple@L5\nFormat settings, BVOP            : Yes\nFormat settings, QPel            : No\nFormat settings, GMC             : No warppoints\nFormat settings, Matrix          : Default (MPEG)\nMuxing mode                      : Packed bitstream\nCodec ID                         : XVID\nCodec ID/Hint                    : XviD\nDuration                         : 1h 34mn\nBit rate                         : 1 949 Kbps\nWidth                            : 688 pixels\nHeight                           : 384 pixels\nDisplay aspect ratio             : 16:9\nFrame rate                       : 25.000 fps\nColor space                      : YUV\nChroma subsampling               : 4:2:0\nBit depth                        : 8 bits\nScan type                        : Progressive\nBits/(Pixel*Frame)               : 0.295\nStream size                      : 1.29 GiB (93%)\nWriting library                  : XviD 1.2.1 (UTC 2008-12-04)\n\nAudio\nID                               : 1\nFormat                           : MPEG Audio\nFormat version                   : Version 1\nFormat profile                   : Layer 3\nCodec ID                         : 55\nCodec ID/Hint                    : MP3\nDuration                         : 1h 34mn\nBit rate mode                    : Constant\nBit rate                         : 128 Kbps\nChannel(s)                       : 2 channels\nSampling rate                    : 44.1 KHz\nStream size                      : 86.7 MiB (6%)\nAlignment                        : Split accross interleaves\nInterleave, duration             : 40 ms (1.00 video frame)\nInterleave, preload duration     : 500 ms\n\n\n\n\n\n\n\n\n\n\n\n[color=yellow]SOURCES:[/color]\n\nVIDEO: ELEKTRI4KA... Thanks \nAUDIO: Thanks matey... Thanks\n\n[color=yellow]NOTES:[/color]\n\nIMAGiNE bringing you another release.......... The Adjustment Bureau 2011 ( new video )\n\nHere we are with nice encode for you all it new video.work done made a small script\nto brighten it up and alter the contrast....also changed the rgb colours \nand added some sharpeness.With the audio it was a pain to sync but we got \nthere now it was just a case of muxing the audio back to our encode...\nFYI great line overall it come out nice for a TS plus subs for non english parts.\nNow the video had missing 4mins video there crop bits out here and there to much of a pain\nto fine and fix we ant got a week lol but overall far better video then v1 ..;)\n\n\nEnjoy ;)\n\n[color=yellow]SCREENS:[/color]\n\n[IMG]http://www.grinshare.com/img/WI8JYO.png[/IMG]\n[IMG]http://www.grinshare.com/img/ORPZRP.png[/IMG]\n[IMG]http://www.grinshare.com/img/JSD4J5.png[/IMG]\n[IMG]http://www.grinshare.com/img/3KEU6C.png[/IMG]\n[IMG]http://www.grinshare.com/img/TVMXZ7.png[/IMG]\n[IMG]http://www.grinshare.com/img/QCFELB.png[/IMG]\n\n[color=yellow]GREETS:[/color]\n\nFLAWL3SS,ViSiON,FUSiON,Rx,SecretMyth,BirdFlu,ELEKTRI4KA,SERENiTY and Autotron\nAnd to all the other p2p grps past and present \n\n\n[COLOR=RED]Looking for these,syncers,cammers,silver supplier,Audio.....Have anything to offer????......\nContact us &lt;a class=&quot;__cf_email__&quot; href=&quot;/cdn-cgi/l/email-protection&quot; data-cfemail=&quot;593034383e30373c3e2b362c2919312c2a3134383035773a3634&quot;&gt;[email&amp;#160;protected]&lt;/a&gt;&lt;script cf-hash='f9e31' type=&quot;text/javascript&quot;&gt;\n/* &lt;![CDATA[ */!function(){try{var t=&quot;currentScript&quot;in document?document.currentScript:function(){for(var t=document.getElementsByTagName(&quot;script&quot;),e=t.length;e--;)if(t[e].getAttribute(&quot;cf-hash&quot;))return t[e]}();if(t&amp;&amp;t.previousSibling){var e,r,n,i,c=t.previousSibling,a=c.getAttribute(&quot;data-cfemail&quot;);if(a){for(e=&quot;&quot;,r=parseInt(a.substr(0,2),16),n=2;a.length-n;n+=2)i=parseInt(a.substr(n,2),16)^r,e+=String.fromCharCode(i);e=document.createTextNode(e),c.parentNode.replaceChild(e,c)}}}catch(u){}}();/* ]]&gt; */&lt;/script&gt;[/COLOR]","torrent":{"xt":"urn:btih:1b62a1ccc1f97e358516df8548571923768f75c6","amp;dn":"The+Adjustment+Bureau+2011+V2+TS+XViD+-+IMAGiNE","amp;tr":["udp%3A%2F%2Ftracker.openbittorrent.com%3A80","udp%3A%2F%2Fopen.demonii.com%3A1337","udp%3A%2F%2Ftracker.coppersurfer.tk%3A6969","udp%3A%2F%2Fexodus.desync.com%3A6969"],"infoHash":"1b62a1ccc1f97e358516df8548571923768f75c6","infoHashBuffer":{"type":"Buffer","data":[27,98,161,204,193,249,126,53,133,22,223,133,72,87,25,35,118,143,117,198]},"announce":[],"urlList":[]}}